<svg width="500" height="399" viewBox="0 0 500 399" fill="none" xmlns="http://www.w3.org/2000/svg">
<path d="M275.986 16.2238L235.622 90.0629L358.121 141.804C384.036 160.147 383.719 184.566 373.025 205.546C349.347 245.609 299.047 331.076 289.305 354.277C279.631 377.315 294.59 390.852 303.576 394.869C326.662 405.017 345.753 390.006 352.412 381.232L495.118 130.071C509.071 101.213 490.361 73.3059 473.553 65.3778L325.457 3.85599C300.087 -6.60907 282.645 6.49868 275.986 16.2238Z" fill="#5C5C5C"/>
<path d="M233.491 212.206L114.887 162.417L82.5409 149.098C58.9469 139.965 42.5834 152.27 35.2895 161.783L20.3848 186.836L5.47985 214.743C-11.0105 249.753 13.6193 273.093 27.9956 280.387L236.662 367.279C218.269 353.643 221.441 337.152 223.978 331.444L254.739 273.728C269.643 239.161 244.591 216.963 233.491 212.206Z" fill="#1F1F1F"/>
<path d="M155.796 89.1621L114.57 162.417L233.491 212.206C264.443 229.965 260.975 259.774 255.373 272.459L223.978 331.444C216.874 350.218 230.109 363.368 237.614 367.596L303.258 394.551C279.411 381.867 286.362 359.617 291.208 349.837L328.628 282.29L371.757 207.766C392.281 173.466 370.171 149.521 358.121 141.804L201.145 75.5258C177.297 67.9148 160.976 81.4454 155.796 89.1621Z" fill="#3D3D3D"/>
</svg>
